<svg width="26" height="24" viewBox="0 0 26 24" fill="none" xmlns="http://www.w3.org/2000/svg">
<path d="M15.7523 6.64357H14.8686V5.3685C14.8685 2.40813 12.4602 0 9.49991 0C6.53966 0 4.13119 2.40847 4.13119 5.3685V6.64357H3.24748C1.81064 6.64357 0.641602 7.81261 0.641602 9.24944V21.3941C0.641602 22.8313 1.81064 24 3.24748 24H15.7522C17.1891 24 18.3581 22.8312 18.3581 21.3941V9.24944C18.3581 7.81261 17.1891 6.64357 15.7523 6.64357ZM5.83124 5.3685C5.83124 3.34569 7.47688 1.70005 9.49991 1.70005C11.5227 1.70005 13.1684 3.34569 13.1684 5.3685V6.64357H5.83124V5.3685ZM16.6582 21.3941C16.6582 21.894 16.2516 22.2999 15.7523 22.2999H3.24737C2.74787 22.2999 2.34154 21.8936 2.34154 21.3941V9.24944C2.34154 8.74994 2.74787 8.34361 3.24737 8.34361H4.13108V9.53567C3.85792 9.77364 3.68174 10.1202 3.68174 10.5112C3.68174 11.2289 4.26346 11.8109 4.98116 11.8109C5.69862 11.8109 6.28058 11.2289 6.28058 10.5112C6.28058 10.1205 6.10428 9.77397 5.83124 9.53567V8.34361H13.1684V9.53567C12.8952 9.77364 12.719 10.1202 12.719 10.5112C12.719 11.2289 13.3007 11.8109 14.0184 11.8109C14.7361 11.8109 15.3179 11.2289 15.3179 10.5112C15.3179 10.1205 15.1416 9.77364 14.8685 9.53567V8.34361H15.7522C16.2517 8.34361 16.6581 8.74994 16.6581 9.24944V21.3941H16.6582Z" fill="#454545"/>
<circle cx="18.5" cy="8" r="7" fill="#F6623E"/>
<path d="M16.75 8.70633C16.75 9.113 16.79 9.48966 16.87 9.83633C16.95 10.1763 17.0667 10.473 17.22 10.7263C17.3733 10.973 17.5567 11.1663 17.77 11.3063C17.99 11.4397 18.2333 11.5063 18.5 11.5063C18.7733 11.5063 19.0167 11.4397 19.23 11.3063C19.4433 11.1663 19.6267 10.973 19.78 10.7263C19.9333 10.473 20.05 10.1763 20.13 9.83633C20.21 9.48966 20.25 9.113 20.25 8.70633C20.25 8.29966 20.21 7.92633 20.13 7.58633C20.05 7.23966 19.9333 6.943 19.78 6.69633C19.6267 6.443 19.4433 6.24966 19.23 6.11633C19.0167 5.97633 18.7733 5.90633 18.5 5.90633C18.2333 5.90633 17.99 5.97633 17.77 6.11633C17.5567 6.24966 17.3733 6.443 17.22 6.69633C17.0667 6.943 16.95 7.23966 16.87 7.58633C16.79 7.92633 16.75 8.29966 16.75 8.70633ZM15.9 8.70633C15.9 8.00633 16.01 7.38633 16.23 6.84633C16.45 6.30633 16.7533 5.883 17.14 5.57633C17.5333 5.263 17.9867 5.10633 18.5 5.10633C19.0133 5.10633 19.4633 5.263 19.85 5.57633C20.2433 5.883 20.55 6.30633 20.77 6.84633C20.99 7.38633 21.1 8.00633 21.1 8.70633C21.1 9.40633 20.99 10.0263 20.77 10.5663C20.55 11.1063 20.2433 11.533 19.85 11.8463C19.4633 12.153 19.0133 12.3063 18.5 12.3063C17.9867 12.3063 17.5333 12.153 17.14 11.8463C16.7533 11.533 16.45 11.1063 16.23 10.5663C16.01 10.0263 15.9 9.40633 15.9 8.70633Z" fill="white"/>
</svg>
