<svg width="8" height="16" viewBox="0 0 8 16" fill="none" xmlns="http://www.w3.org/2000/svg">
<path d="M7.28408 0.494236L5.4686 0.491211C3.42896 0.491211 2.11086 1.89553 2.11086 4.06909V5.71873H0.285468C0.127732 5.71873 0 5.85152 0 6.01532V8.40546C0 8.56926 0.127878 8.7019 0.285468 8.7019H2.11086V14.733C2.11086 14.8968 2.23859 15.0294 2.39633 15.0294H4.77794C4.93568 15.0294 5.06341 14.8966 5.06341 14.733V8.7019H7.19772C7.35545 8.7019 7.48318 8.56926 7.48318 8.40546L7.48406 6.01532C7.48406 5.93667 7.45391 5.86135 7.40046 5.80569C7.347 5.75003 7.27418 5.71873 7.19844 5.71873H5.06341V4.32031C5.06341 3.64817 5.21765 3.30696 6.0608 3.30696L7.28379 3.3065C7.44138 3.3065 7.56911 3.17371 7.56911 3.01006V0.790678C7.56911 0.627181 7.44153 0.494538 7.28408 0.494236Z" fill="#828181"/>
</svg>
