<svg width="72" height="72" viewBox="0 0 72 72" fill="none" xmlns="http://www.w3.org/2000/svg">
<path d="M47.6305 26.1521C47.3764 25.8978 47.0236 25.7515 46.6641 25.7515C46.3045 25.7515 45.9518 25.8976 45.6975 26.1521C45.4432 26.4065 45.2969 26.7591 45.2969 27.1187C45.2969 27.4782 45.443 27.831 45.6975 28.0851C45.9518 28.3394 46.3045 28.4858 46.6641 28.4858C47.0236 28.4858 47.3764 28.3394 47.6305 28.0851C47.8848 27.831 48.0313 27.4782 48.0313 27.1187C48.0313 26.7591 47.885 26.4063 47.6305 26.1521Z" fill="#454545" stroke="#454545"/>
<path d="M43.4047 46.1474C41.4452 46.1474 39.8511 44.7578 39.8511 43.0499C39.8511 41.3419 41.4452 39.9522 43.4047 39.9522C45.3641 39.9522 46.9581 41.3419 46.9581 43.0499C46.9581 43.8046 47.5704 44.4166 48.3253 44.4166C49.0803 44.4166 49.6925 43.8046 49.6925 43.0499C49.6925 40.2701 47.5835 37.9398 44.7719 37.3593V37.2222C44.7719 36.4675 44.1596 35.8555 43.4047 35.8555C42.6497 35.8555 42.0375 36.4675 42.0375 37.2222V37.3593C39.2257 37.9398 37.1167 40.2701 37.1167 43.0499C37.1167 46.2651 39.9375 48.8808 43.4047 48.8808C45.3641 48.8808 46.9581 50.2705 46.9581 51.9785C46.9581 53.6865 45.3641 55.0761 43.4047 55.0761C41.4452 55.0761 39.8511 53.6866 39.8511 51.9786C39.8511 51.2239 39.2389 50.6119 38.4839 50.6119C37.7289 50.6119 37.1167 51.2239 37.1167 51.9786C37.1167 54.7584 39.2257 57.0885 42.0375 57.6691V58.0155C42.0375 58.7702 42.6497 59.3822 43.4047 59.3822C44.1596 59.3822 44.7719 58.7702 44.7719 58.0155V57.6689C47.5835 57.0883 49.6925 54.7582 49.6925 51.9785C49.6925 48.7633 46.8717 46.1474 43.4047 46.1474Z" fill="#454545" stroke="#454545"/>
<path d="M61.894 27.1481L53.8049 17.0384L57.8572 9.08641C58.7464 7.34153 58.4023 5.34353 56.9807 3.99649C55.559 2.64932 53.5447 2.41288 51.8491 3.39377C51.2844 3.72069 50.565 3.6637 50.0607 3.25368C46.197 0.104635 40.5851 0.100398 36.7068 3.25232C36.2005 3.66383 35.4812 3.72069 34.9166 3.39363C33.2211 2.41274 31.2068 2.64918 29.7851 3.99649C28.3635 5.34353 28.0194 7.34166 28.9086 9.08641L32.9745 17.0647L28.263 22.9531C27.7915 23.5426 27.887 24.4025 28.4767 24.8741C29.0665 25.3457 29.9266 25.2499 30.3984 24.6605L35.2555 18.5901H45.297V22.4255C45.297 23.1802 45.9092 23.7923 46.6642 23.7923C47.4191 23.7923 48.0313 23.1802 48.0313 22.4255V18.5901H50.1163V32.2431C50.1163 32.9978 50.7285 33.6098 51.4835 33.6098C52.2385 33.6098 52.8507 32.9978 52.8507 32.2431V20.2219L59.7584 28.8553C65.2444 35.7118 68.2658 44.3232 68.2658 53.103C68.2658 61.3831 61.527 68.1195 53.244 68.1195H33.5565C28.6062 68.1195 24.0914 65.7585 21.2754 61.7529C26.2985 59.1026 29.5903 56.413 31.5112 53.4162C33.6094 50.1427 33.8484 46.9012 33.9307 43.3072C33.931 43.2966 33.9311 43.2863 33.9311 43.2759V31.9197C33.9311 31.386 33.6203 30.9011 33.1353 30.678L18.0368 23.7351C17.6743 23.5683 17.2568 23.5683 16.8943 23.7351L1.79584 30.678C1.31076 30.9011 1 31.386 1 31.9197V43.2759C1 43.2863 1.00014 43.2966 1.00041 43.3072C1.08285 46.9012 1.32184 50.1427 3.41993 53.4162C5.72651 57.0148 10.0076 60.1704 16.8926 63.3469C17.0743 63.4307 17.27 63.4726 17.4655 63.4726C17.661 63.4726 17.8566 63.4307 18.0383 63.3469C18.2991 63.2266 18.5547 63.1063 18.8079 62.9861C20.3209 65.2371 22.3392 67.1283 24.6915 68.4856C27.3753 70.0342 30.4408 70.8528 33.5564 70.8528H53.2439C63.0346 70.8528 71 62.8901 71 53.1028C71.0001 43.705 67.7662 34.4872 61.894 27.1481ZM51.3386 15.8567H35.4275L31.3451 7.84571C30.8473 6.86892 31.465 6.17107 31.6662 5.98041C31.8675 5.78962 32.5985 5.21082 33.5466 5.75942C35.0875 6.65092 37.0503 6.49594 38.442 5.36485C41.3096 3.03487 45.469 3.03788 48.3343 5.37346C49.7157 6.4958 51.6786 6.65106 53.2191 5.75955C54.1678 5.21013 54.8985 5.78962 55.0997 5.98041C55.301 6.17107 55.9187 6.86892 55.421 7.84571L51.3386 15.8567ZM17.4656 60.5977C3.99838 54.2465 3.86932 49.1484 3.73438 43.2604V32.7955L17.4656 26.4813L31.1969 32.7955V43.2604C31.0618 49.1484 30.9329 54.2465 17.4656 60.5977Z" fill="#454545" stroke="#454545"/>
<path d="M26.1948 38.9898C25.6609 38.4562 24.7955 38.4562 24.2615 38.9898L16.5999 46.6487L13.3565 43.4064C12.8225 42.8729 11.957 42.8729 11.4229 43.4064C10.889 43.9401 10.889 44.8055 11.4229 45.3394L15.633 49.548C15.9 49.8148 16.2499 49.9484 16.5997 49.9484C16.9496 49.9484 17.2995 49.8148 17.5665 49.548L26.1948 40.9227C26.7287 40.389 26.7287 39.5236 26.1948 38.9898Z" fill="#454545" stroke="#454545"/>
</svg>
