<svg width="14" height="16" viewBox="0 0 14 16" fill="none" xmlns="http://www.w3.org/2000/svg">
<path d="M7.13781 15.0294C7.09145 15.0294 7.04509 15.0294 6.99842 15.0292C5.90103 15.032 4.88707 15.003 3.90098 14.9407C2.99693 14.8836 2.1717 14.5591 1.51438 14.0026C0.880129 13.4655 0.447007 12.7393 0.227082 11.8444C0.0356752 11.0653 0.025528 10.3005 0.0158081 9.56083C0.00875856 9.03009 0.00149537 8.40119 0 7.76163C0.00149537 7.11942 0.00875856 6.49051 0.0158081 5.95977C0.025528 5.22016 0.0356752 4.45538 0.227082 3.67618C0.447007 2.7813 0.880129 2.05512 1.51438 1.51805C2.1717 0.961463 2.99693 0.637027 3.90109 0.579905C4.88717 0.51768 5.90135 0.488619 7.00109 0.491392C8.09879 0.488952 9.11244 0.51768 10.0985 0.579905C11.0026 0.637027 11.8278 0.961463 12.4851 1.51805C13.1195 2.05512 13.5525 2.7813 13.7724 3.67618C13.9638 4.45527 13.974 5.22016 13.9837 5.95977C13.9907 6.49051 13.9981 7.11942 13.9995 7.75897V7.76163C13.9981 8.40119 13.9907 9.03009 13.9837 9.56083C13.974 10.3004 13.9639 11.0652 13.7724 11.8444C13.5525 12.7393 13.1195 13.4655 12.4851 14.0026C11.8278 14.5591 11.0026 14.8836 10.0985 14.9407C9.1542 15.0004 8.18413 15.0294 7.13781 15.0294ZM6.99842 13.8934C8.07796 13.8961 9.06918 13.8678 10.0321 13.807C10.7157 13.7639 11.3084 13.5335 11.7939 13.1223C12.2428 12.7422 12.5519 12.2178 12.7126 11.5636C12.872 10.915 12.8812 10.2187 12.89 9.54531C12.897 9.01811 12.9043 8.39364 12.9058 7.7603C12.9043 7.12685 12.897 6.50249 12.89 5.9753C12.8812 5.30191 12.872 4.60557 12.7126 3.95692C12.5519 3.30272 12.2428 2.7783 11.7939 2.39819C11.3084 1.98712 10.7157 1.75675 10.0321 1.7136C9.06918 1.6527 8.07796 1.62464 7.00098 1.62708C5.92165 1.62442 4.93033 1.6527 3.96742 1.7136C3.28382 1.75675 2.69112 1.98712 2.20556 2.39819C1.75673 2.7783 1.44762 3.30272 1.28687 3.95692C1.12751 4.60557 1.11832 5.3018 1.10945 5.9753C1.10251 6.50293 1.09525 7.12773 1.09375 7.76163C1.09525 8.39276 1.10251 9.01767 1.10945 9.54531C1.11832 10.2187 1.12751 10.915 1.28687 11.5636C1.44762 12.2178 1.75673 12.7422 2.20556 13.1223C2.69112 13.5334 3.28382 13.7637 3.96742 13.8069C4.93033 13.8678 5.92186 13.8962 6.99842 13.8934ZM6.97235 11.3097C5.08777 11.3097 3.55438 9.71745 3.55438 7.7603C3.55438 5.80315 5.08777 4.21092 6.97235 4.21092C8.85705 4.21092 10.3903 5.80315 10.3903 7.7603C10.3903 9.71745 8.85705 11.3097 6.97235 11.3097ZM6.97235 5.34672C5.69083 5.34672 4.64813 6.4295 4.64813 7.7603C4.64813 9.0911 5.69083 10.1739 6.97235 10.1739C8.25399 10.1739 9.29658 9.0911 9.29658 7.7603C9.29658 6.4295 8.25399 5.34672 6.97235 5.34672ZM10.7731 3.07512C10.3202 3.07512 9.95283 3.45646 9.95283 3.92697C9.95283 4.39748 10.3202 4.77882 10.7731 4.77882C11.2262 4.77882 11.5935 4.39748 11.5935 3.92697C11.5935 3.45646 11.2262 3.07512 10.7731 3.07512Z" fill="#828181"/>
</svg>
