<svg width="51" height="71" viewBox="0 0 51 71" fill="none" xmlns="http://www.w3.org/2000/svg">
<path d="M48.8824 21.5458H41.9206V17.3319C41.9206 8.26215 34.5394 0.883545 25.4666 0.883545C16.3938 0.883545 9.01264 8.26215 9.01264 17.3319V21.5458H2.05078C0.918203 21.5458 0 22.4636 0 23.5958V68.8091C0 69.9413 0.918203 70.8592 2.05078 70.8592H48.8824C50.015 70.8592 50.9332 69.9413 50.9332 68.8091V23.5958C50.9332 22.4635 50.015 21.5458 48.8824 21.5458ZM13.1142 17.3319C13.1142 10.523 18.6554 4.98368 25.4666 4.98368C32.2778 4.98368 37.819 10.523 37.819 17.3319V21.5458H33.9448V17.0897C33.9448 12.4165 30.1416 8.61448 25.4666 8.61448C20.7918 8.61448 16.9884 12.4164 16.9884 17.0897V21.5458H13.1142V17.3319ZM29.8432 21.5458H21.09V17.0897C21.09 14.6774 23.0534 12.7146 25.4666 12.7146C27.8798 12.7146 29.8432 14.6772 29.8432 17.0897V21.5458ZM8.0109 48.9889H4.10156V43.4162H8.0109V48.9889ZM4.10156 53.0891H8.0109V58.662H4.10156V53.0891ZM8.0109 39.3159H4.10156V33.7431H8.0109V39.3159ZM46.8316 66.759H4.10156V62.7621H10.0617C11.1943 62.7621 12.1125 61.8442 12.1125 60.712V31.693C12.1125 30.5609 11.1943 29.643 10.0617 29.643H4.10156V25.6459H46.8316V66.759Z" fill="#454545"/>
<path d="M28.557 43.152C26.6697 42.485 24.5823 41.6793 23.4098 40.76C23.0331 40.4648 22.8695 39.7925 23.0023 39.0874C23.1385 38.3651 23.624 37.4908 24.5782 37.2035C26.5353 36.614 27.8779 37.3965 28.3645 37.76C29.2714 38.4381 30.5566 38.2526 31.235 37.3459C31.9133 36.4391 31.7277 35.1545 30.8206 34.4765C30.3827 34.1492 29.2822 33.4297 27.7046 33.0853V32.2114C27.7046 31.0793 26.7864 30.1614 25.6539 30.1614C24.5213 30.1614 23.6031 31.0793 23.6031 32.2114V33.2195C23.5339 33.2387 23.465 33.2567 23.3951 33.2778C21.1251 33.9614 19.43 35.8965 18.9716 38.3282C18.5498 40.5653 19.2805 42.7334 20.8783 43.9862C22.1995 45.0222 24.028 45.9004 27.1898 47.0179C29.3203 47.7706 29.274 49.4952 29.1551 50.2018C28.9147 51.6308 27.7123 53.1752 25.6401 53.1888C23.6188 53.2017 22.9883 53.1022 21.4336 52.0858C20.4859 51.4658 19.2148 51.7317 18.5948 52.6791C17.9748 53.6266 18.2406 54.8971 19.1883 55.517C20.862 56.6116 22.0944 57.0517 23.603 57.2101V58.1911C23.603 59.3233 24.5212 60.2412 25.6537 60.2412C26.7863 60.2412 27.7045 59.3233 27.7045 58.1911V57.0141C28.8566 56.701 29.9065 56.1245 30.8028 55.3014C32.0642 54.1427 32.9155 52.5731 33.2001 50.8816C33.7782 47.4437 31.9122 44.3375 28.557 43.152Z" fill="#454545"/>
</svg>
