<svg width="12" height="16" viewBox="0 0 12 16" fill="none" xmlns="http://www.w3.org/2000/svg">
<path d="M5.87764 0.491211C2.04059 0.491211 0 3.0446 0 5.8288C0 7.12003 0.694781 8.73021 1.80696 9.24089C1.97584 9.31994 2.06772 9.28632 2.10535 9.12367C2.1386 9.00009 2.28473 8.4049 2.35561 8.12412C2.37748 8.03416 2.36611 7.95602 2.2961 7.87151C1.92684 7.42807 1.6337 6.62026 1.6337 5.86242C1.6337 3.92057 3.12039 2.03506 5.65013 2.03506C7.83773 2.03506 9.36817 3.51075 9.36817 5.62162C9.36817 8.0069 8.15274 9.65707 6.5733 9.65707C5.69913 9.65707 5.0481 8.94466 5.25461 8.06324C5.504 7.01372 5.99315 5.88514 5.99315 5.1282C5.99315 4.44942 5.62388 3.88786 4.8696 3.88786C3.97968 3.88786 3.25777 4.8029 3.25777 6.03143C3.25777 6.81199 3.52378 7.33902 3.52378 7.33902C3.52378 7.33902 2.64349 11.0319 2.47986 11.7216C2.20335 12.8892 2.51749 14.7802 2.54462 14.9429C2.56124 15.0328 2.65837 15.061 2.71262 14.9874C2.79925 14.8693 3.8633 13.2927 4.16169 12.1532C4.27019 11.7379 4.71559 10.0542 4.71559 10.0542C5.00873 10.6039 5.85489 11.0646 6.75618 11.0646C9.4373 11.0646 11.3746 8.61754 11.3746 5.58073C11.365 2.66932 8.96566 0.491211 5.87764 0.491211Z" fill="#828181"/>
</svg>
