<svg width="23" height="24" viewBox="0 0 23 24" fill="none" xmlns="http://www.w3.org/2000/svg">
<g clip-path="url(#clip0_10678_77)">
<path d="M22.2312 22.1316L15.975 15.5527C17.1868 13.9786 17.9165 11.9784 17.9165 9.79994C17.9165 4.75082 14.0097 0.642487 9.20822 0.642487C4.40677 0.642487 0.5 4.75077 0.5 9.79989C0.5 14.849 4.40681 18.9573 9.20826 18.9573C11.2799 18.9573 13.182 18.1901 14.6789 16.9157L20.9351 23.4946C21.1138 23.6826 21.3484 23.7771 21.5831 23.7771C21.8178 23.7771 22.0525 23.6826 22.2312 23.4946C22.5896 23.1177 22.5896 22.5085 22.2312 22.1316ZM9.20826 17.0294C5.41695 17.0294 2.33333 13.7868 2.33333 9.79989C2.33333 5.81302 5.41695 2.57034 9.20826 2.57034C12.9996 2.57034 16.0832 5.81302 16.0832 9.79989C16.0832 13.7868 12.9995 17.0294 9.20826 17.0294Z" fill="#454545"/>
</g>
<defs>
<clipPath id="clip0_10678_77">
<rect width="22" height="23.1348" fill="white" transform="translate(0.5 0.642334)"/>
</clipPath>
</defs>
</svg>
