<svg width="72" height="72" viewBox="0 0 72 72" fill="none" xmlns="http://www.w3.org/2000/svg">
<path d="M67.8086 44.5734L69.8113 42.5719C71.0717 41.3115 71.0717 39.2609 69.8113 38.0004C69.2004 37.3902 68.3886 37.0538 67.5245 37.0538C66.8762 37.0538 66.2566 37.2434 65.7301 37.5962L65.3082 36.1804L67.4759 34.0129C68.7368 32.7524 68.7368 30.7018 67.4759 29.4419C66.3154 28.2812 64.4857 28.1921 63.2184 29.1685L60.6496 20.5476C61.6755 19.5599 62.6582 18.5989 63.5842 17.6732C66.2529 15.0049 68.4228 12.1812 69.6944 9.72116C71.8429 5.56336 70.9435 3.34085 69.8108 2.20851C68.6786 1.07617 66.4553 0.177659 62.2955 2.32543C59.8351 3.59604 57.01 5.76517 54.3413 8.43346C53.4152 9.3592 52.4534 10.341 51.4659 11.3666L42.8414 8.79863C43.8182 7.53228 43.729 5.70324 42.5685 4.5426C41.3076 3.28266 39.2563 3.28213 37.9959 4.5426L35.8276 6.71012L34.4108 6.28836C34.7638 5.76143 34.9534 5.14214 34.9534 4.49402C34.9534 3.63075 34.6169 2.81873 34.0065 2.20851C32.7461 0.948036 30.6942 0.948036 29.4339 2.20851L27.4317 4.21L17.2264 1.1712C16.8627 1.06335 16.4696 1.16265 16.202 1.43066L13.575 4.05678C13.1339 4.49722 13.1921 5.25051 13.6952 5.61835L39.4443 24.4592C33.6385 31.0029 28.0458 37.5546 24.0976 42.2356L16.5235 39.3233C16.1428 39.177 15.7118 39.2683 15.4234 39.5566L12.3098 42.6691C11.9071 43.0722 11.9071 43.7251 12.3098 44.1276L27.8771 59.6895C28.2744 60.0872 28.9388 60.0872 29.3367 59.6895L32.4497 56.5775C32.7381 56.2893 32.8299 55.8579 32.6831 55.4772L29.7703 47.9064C34.4529 43.9595 41.0064 38.3688 47.5529 32.5645L49.5983 35.3588C49.9615 35.8547 50.6979 35.9188 51.1433 35.496C51.5145 35.1436 51.5658 34.5526 51.264 34.1405L49.1016 31.1871C52.5249 28.1328 55.9055 25.0513 58.9726 22.1476L68.6952 54.7752L67.3541 56.1152L53.9915 37.8653C53.655 37.4057 53.0093 37.3058 52.5495 37.6422C52.0892 37.979 51.9893 38.6245 52.3263 39.0841L66.4003 58.3052C66.7683 58.8081 67.5218 58.8663 67.9624 58.4253L70.5895 55.7992C70.8576 55.5317 70.9569 55.1382 70.849 54.7752L67.8086 44.5734ZM39.4555 6.00167C39.9062 5.55108 40.6587 5.55108 41.1094 6.00167C41.5655 6.4576 41.5655 7.19915 41.1094 7.65508L40.6256 8.13876L38.0765 7.3796L39.4555 6.00167ZM30.8934 3.66758C31.349 3.21166 32.0913 3.21166 32.5474 3.66758C33.0035 4.12351 33.0035 4.86506 32.5474 5.32099L32.2291 5.63864L29.6806 4.88001L30.8934 3.66758ZM15.8853 4.66432L17.2264 3.3243L49.8653 13.0429C46.9606 16.1095 43.878 19.4889 40.8221 22.911L15.8853 4.66432ZM16.4087 41.4898L22.6919 43.9055C21.1159 45.7816 19.9073 47.2332 19.1944 48.0922L14.4989 43.3984L16.4087 41.4898ZM20.6604 49.5577C24.2578 45.2189 43.2729 22.4156 55.8009 9.892C58.2864 7.40682 60.9994 5.31725 63.243 4.15875C64.9274 3.28853 67.1811 2.49733 68.3518 3.66758C69.5224 4.83783 68.7304 7.09077 67.8604 8.77461C66.7015 11.0174 64.6107 13.7289 62.1246 16.2141C49.5978 28.7366 26.786 47.7457 22.4457 51.3424L20.6604 49.5577ZM30.5164 55.5925L28.6071 57.5011L23.9117 52.8073C24.7705 52.0951 26.2231 50.887 28.0998 49.3115L30.5164 55.5925ZM66.6978 39.4595C67.1539 39.0035 67.8957 39.0035 68.3518 39.4595C68.8078 39.9154 68.8078 40.6569 68.3518 41.1129L67.1389 42.3253L66.3795 39.7776L66.6978 39.4595ZM64.3629 30.9004C64.8184 30.4445 65.5608 30.445 66.0169 30.9004C66.4676 31.351 66.4676 32.1032 66.0169 32.5538L64.6379 33.9323L63.8785 31.3841L64.3629 30.9004Z" fill="#454545" stroke="#454545"/>
<path d="M62.9451 60.4315L54.139 69.2345C53.7636 69.6104 53.7385 70.2308 54.084 70.6344C54.4702 71.0849 55.1788 71.1132 55.5986 70.6936L64.4047 61.8906C64.8079 61.4875 64.8079 60.8346 64.4047 60.4315C64.002 60.029 63.3483 60.029 62.9451 60.4315Z" fill="#454545" stroke="#454545"/>
<path d="M60.001 57.4892C60.4042 57.0866 60.4042 56.4329 60.001 56.0302C59.5983 55.627 58.9447 55.627 58.542 56.0302L53.038 61.5337C52.6625 61.9096 52.6374 62.5302 52.983 62.934C53.3691 63.3847 54.0778 63.413 54.4975 62.9932L60.001 57.4892Z" fill="#454545" stroke="#454545"/>
<path d="M56.6993 51.9878C57.1025 51.5846 57.1025 50.9309 56.6993 50.5282C56.2961 50.125 55.6429 50.125 55.2397 50.5282L51.387 54.3809C51.0116 54.7564 50.9865 55.3775 51.3325 55.7812C51.7181 56.232 52.4268 56.2603 52.8466 55.8405L56.6993 51.9878Z" fill="#454545" stroke="#454545"/>
<path d="M11.5681 8.16323C11.1649 7.76069 10.5112 7.76069 10.1085 8.16323L1.30241 16.9668C0.899196 17.3693 0.899196 18.0228 1.30241 18.4253C1.69975 18.8225 2.36412 18.8225 2.76199 18.4253L11.5681 9.62231C11.9708 9.21923 11.9708 8.56631 11.5681 8.16323Z" fill="#454545" stroke="#454545"/>
<path d="M15.9709 12.5651C15.5677 12.1619 14.9146 12.1619 14.5119 12.5651L9.00788 18.0691C8.6319 18.4446 8.60733 19.0651 8.95287 19.4689C9.33899 19.9196 10.0472 19.9479 10.4669 19.5282L15.9709 14.0247C16.3741 13.6215 16.3741 12.9678 15.9709 12.5651Z" fill="#454545" stroke="#454545"/>
<path d="M16.1624 21.1785C16.5602 21.5758 17.2241 21.5758 17.6219 21.1785L21.4746 17.3258C21.8773 16.9226 21.8773 16.2694 21.4746 15.8662C21.0714 15.4635 20.4183 15.4635 20.0151 15.8662L16.1624 19.7189C15.7597 20.1221 15.7597 20.7753 16.1624 21.1785Z" fill="#454545" stroke="#454545"/>
</svg>
