<svg width="18" height="16" viewBox="0 0 18 16" fill="none" xmlns="http://www.w3.org/2000/svg">
<path d="M17.2308 2.21231C16.59 2.5042 15.9072 2.69767 15.1954 2.7916C15.9277 2.33756 16.4866 1.62407 16.7494 0.764082C16.0666 1.18681 15.3128 1.4854 14.5094 1.65203C13.8611 0.935186 12.9371 0.491211 11.9291 0.491211C9.97338 0.491211 8.39892 2.13962 8.39892 4.16043C8.39892 4.4512 8.42262 4.73078 8.48077 4.99694C5.544 4.8482 2.94538 3.38655 1.19969 1.15997C0.894923 1.70907 0.716154 2.33756 0.716154 3.01415C0.716154 4.28457 1.34615 5.41072 2.28523 6.0627C1.71769 6.05152 1.16092 5.88042 0.689231 5.6109C0.689231 5.62208 0.689231 5.63662 0.689231 5.65116C0.689231 7.43377 1.91369 8.91443 3.51938 9.25552C3.23185 9.33716 2.91846 9.3763 2.59323 9.3763C2.36708 9.3763 2.13877 9.36288 1.92446 9.31367C2.38215 10.7664 3.68092 11.8344 5.22523 11.869C4.02339 12.8453 2.49738 13.4336 0.845385 13.4336C0.555692 13.4336 0.277846 13.4202 0 13.3833C1.56477 14.4311 3.41923 15.0294 5.41908 15.0294C11.9194 15.0294 15.4732 9.43781 15.4732 4.59099C15.4732 4.42883 15.4678 4.27227 15.4603 4.11682C16.1614 3.60015 16.7505 2.95488 17.2308 2.21231Z" fill="#828181"/>
</svg>
