<svg width="21" height="16" viewBox="0 0 21 16" fill="none" xmlns="http://www.w3.org/2000/svg">
<path d="M19.4982 1.89217C18.9458 0.871848 18.3464 0.684173 17.1258 0.612803C15.9065 0.526896 12.8405 0.491211 10.1844 0.491211C7.52309 0.491211 4.45582 0.526896 3.23782 0.611482C2.01982 0.684173 1.41909 0.870526 0.861636 1.89217C0.292727 2.91116 0 4.66632 0 7.75636C0 7.759 0 7.76032 0 7.76032C0 7.76296 0 7.76429 0 7.76429V7.76693C0 10.8437 0.292727 12.6121 0.861636 13.6205C1.41909 14.6409 2.01855 14.8259 3.23655 14.9118C4.45582 14.9858 7.52309 15.0294 10.1844 15.0294C12.8405 15.0294 15.9065 14.9858 17.1271 14.9131C18.3476 14.8272 18.9471 14.6422 19.4995 13.6219C20.0735 12.6134 20.3636 10.8451 20.3636 7.76825C20.3636 7.76825 20.3636 7.76429 20.3636 7.76164C20.3636 7.76164 20.3636 7.759 20.3636 7.75768C20.3636 4.66632 20.0735 2.91116 19.4982 1.89217ZM7.63636 11.7253V3.79535L14 7.76032L7.63636 11.7253Z" fill="#828181"/>
</svg>
